<svg xmlns="http://www.w3.org/2000/svg" fill="none" viewBox="0 0 42 26"><path d="M8.664 20.563h-1.5 3zm0-15.126h1.5-3zm24.675 0 1.5.003-3-.007zm0 15.125-1.5.005 3-.008zM10.39 2V.5h-.037zm3.455 0 .037-1.5h-.037zm1.727 1.834-1.5-.034v.034zm0 18.332h-1.5v.034zM13.845 24v1.5h.037zm-3.455 0-.037 1.5h.037zm-1.726-1.834 1.5.034v-.034zM3.727 18.5 3.69 20h.037zM2 16.666l1.5.034v-.034zm0-7.332h1.5V9.3zM3.727 7.5V6H3.69zm4.937-3.666h1.5V3.8zM31.61 24v1.5h.037zm-3.455 0-.037 1.5h.037zm-1.727-1.834 1.5.034v-.034zm0-18.332h1.5V3.8zM28.155 2V.5h-.037zm3.455 0 .037-1.5h-.037zm1.726 1.834-1.5-.034v.034zM38.271 7.5l.034-1.5h-.034zm1.24.554 1.091-1.028zm.488 1.28L38.5 9.3v.034zm0 7.332h-1.5v.034zM38.274 18.5V20h.037zm-4.937 3.666h-1.5v.034zM7.164 18.5v2.063h3V18.5zm3 2.062V18.72h-3v1.843zm0-1.842v-.22h-3v.22zm0-11.22V5.438h-3V7.5zm-3-2.063v.385-.035c.004-.073 1.559-1.46 2.998-.029l.002.05v.015-.054c-1.494-1.452-3 .009-3 .03V6.4h3v-.581.016c0 .022-1.506 1.482-3 .03V5.82v.025l.001.049c1.44 1.431 2.995.044 2.998-.029v-.426zm0 .963v1.1h3V6.4zm27.672 1.1c0-.568 0-1.083.002-1.456v-.602l-1.5-.005-1.5-.004v.606L31.836 7.5zM31.84 5.435c-.003 1.401-.003.963-.003 2.065h3c0-1.098 0-.656.003-2.06zM31.836 18.5c0 1.141 0 1.104.003 2.066l3-.007c-.002-.963-.003-.922-.003-2.059zm1.503 2.063 1.5-.005v-.161l-.002-.441V18.5h-3v1.461l.001.443v.162zM16.356 10.62c-.218 0-.328-.011-.436-.019a2 2 0 0 0-.16-.006c-.031 0-.264-.006-.53.088a1.52 1.52 0 0 0-1.004 1.26c-.05.447.12.787.13.806.035.08.076.151.077.153l.01.017.001.003-.016-.038c-.013-.035.005-.009.005.116h3c0-.445-.07-.813-.178-1.12a3 3 0 0 0-.158-.36c-.021-.04-.042-.075-.046-.083-.016-.028.012.019.04.08a1.5 1.5 0 0 1 .117.761 1.49 1.49 0 0 1-1.31 1.31 1 1 0 0 1-.139.007c-.043 0-.07-.003-.049-.001.077.005.3.026.646.026zM14.433 13c0 .159-.028.065.072-.132.047-.092.166-.293.417-.465.124-.085.338-.202.633-.24a1.478 1.478 0 0 1 1.426 2.262c-.174.265-.383.39-.477.439-.202.104-.303.076-.148.076v-3c-.408 0-.843.059-1.23.26a1.7 1.7 0 0 0-.652.577c-.099.151-.226.4-.252.731a1.522 1.522 0 0 0 1.707 1.632c.311-.039.545-.164.69-.263.293-.202.463-.46.559-.646.196-.386.255-.82.255-1.231zm3.423.44v-1.32h-3v1.32zm7.788 1.5c.155 0 .054.029-.148-.076a1.3 1.3 0 0 1-.477-.439 1.44 1.44 0 0 1-.231-.675 1.48 1.48 0 0 1 1.657-1.586c.295.037.51.154.633.239.25.172.37.373.417.465.1.197.072.29.072.132h-3c0 .411.059.845.255 1.23.096.187.265.445.56.647.144.1.378.224.69.263a1.522 1.522 0 0 0 1.454-2.363 1.7 1.7 0 0 0-.652-.578c-.387-.2-.822-.259-1.23-.259zM27.567 13c0-.125.018-.151.005-.116l-.016.038.001-.003.01-.017c0-.002.042-.073.078-.153.008-.019.18-.359.129-.807a1.51 1.51 0 0 0-1.004-1.259c-.266-.094-.499-.088-.53-.088-.072 0-.136.004-.16.006-.108.008-.218.019-.436.019v3c.345 0 .57-.021.646-.026.022-.002-.006 0-.049 0-.024 0-.074 0-.14-.007a1.48 1.48 0 0 1-1.309-1.31 1.5 1.5 0 0 1 .118-.76c.027-.061.055-.108.04-.08a2.7 2.7 0 0 0-.204.444 3.3 3.3 0 0 0-.18 1.119zm-3.423-.88v1.32h3v-1.32zm-13.98 6.6V7.5h-3v11.22zm-3-12.32v12.1h3V6.4zm24.672 1.1v11h3v-11zm-15.48 7.44h9.288v-3h-9.288zm9.288-4.32h-9.288v3h9.288zM10.39 3.5h3.455v-3H10.39zm3.419 0c.13.003.267.12.263.3l3 .069C17.111 2.07 15.703.545 13.881.5zm.263.334v18.332h3V3.834zm0 18.366a.283.283 0 0 1-.263.3l.073 3c1.822-.045 3.23-1.57 3.19-3.369zm-.227.3H10.39v3h3.455zm-3.418 0a.283.283 0 0 1-.263-.3l-3-.069c-.041 1.798 1.367 3.324 3.19 3.369zm-.263-.334V18.5h-3v3.666zM8.664 17H3.727v3h4.937zm-4.9 0a.283.283 0 0 1-.264-.3l-3-.069C.46 18.43 1.869 19.955 3.69 20zm-.264-.334V9.334h-3v7.332zm0-7.366a.283.283 0 0 1 .263-.3L3.69 6C1.868 6.045.46 7.571.5 9.37zm.227-.3h4.937V6H3.727zm6.437-1.5V3.834h-3V7.5zm0-3.7a.283.283 0 0 1 .263-.3l-.074-3c-1.822.045-3.23 1.57-3.189 3.37zM31.61 22.5h-3.455v3h3.455zm-3.419 0a.283.283 0 0 1-.263-.3l-3-.069c-.04 1.798 1.367 3.324 3.19 3.369zm-.263-18.7a.283.283 0 0 1 .264-.3l-.074-3c-1.822.045-3.23 1.57-3.19 3.369zm.227-.3h3.455v-3h-3.455zm3.418 0c.13.003.268.12.264.3l2.999.069C34.877 2.07 33.469.545 31.646.5zm.263.334V7.5h3V3.834zM33.336 9h4.935V6h-4.935zm4.9 0a.26.26 0 0 1 .183.083l2.183-2.058A3.26 3.26 0 0 0 38.305 6zm.182.083a.3.3 0 0 1 .082.217l3 .068a3.3 3.3 0 0 0-.898-2.342zm.081.251v7.332h3V9.334zm0 7.366a.283.283 0 0 1-.263.3l.074 3c1.822-.045 3.23-1.57 3.19-3.369zm-.226.3h-4.937v3h4.937zm-6.437 1.5v3.666h3V18.5zm0 3.7a.283.283 0 0 1-.263.3l.074 3c1.822-.045 3.23-1.57 3.189-3.369zm-3.908-.034V13h-3v9.166zm0-9.166V3.834h-3V13z" fill="#fff"/></svg>